<svg width="14" height="14" viewBox="0 0 14 14" fill="none" xmlns="http://www.w3.org/2000/svg">
<path d="M0.681376 3.07422L0.0964041 3.59738C0.0672235 3.62382 0.0436325 3.65608 0.0270786 3.69218C0.0105247 3.72828 0.00135612 3.76747 0.000139236 3.80733C-0.00107861 3.84718 0.00567913 3.88688 0.0199976 3.92397C0.0343161 3.96106 0.0558949 3.99476 0.0834055 4.02301L6.8301 10.9128C6.8567 10.9404 6.88841 10.9624 6.92337 10.9773C6.95833 10.9923 6.99586 11 7.03376 11C7.07165 11 7.10917 10.9923 7.14414 10.9773C7.1791 10.9624 7.2108 10.9404 7.23741 10.9128L13.9148 4.04518C13.9685 3.99095 13.9992 3.91717 14 3.83993C14.0008 3.76269 13.9717 3.68825 13.9191 3.63285L13.4035 3.10082C13.3505 3.04581 13.2784 3.01447 13.2029 3.01364C13.1274 3.01281 13.0546 3.04255 13.0005 3.09639L7.20275 8.96647C7.1486 9.0203 7.07586 9.05005 7.00036 9.04922C6.92487 9.04839 6.85276 9.01705 6.79977 8.96203L1.07569 3.08752C1.02421 3.03392 0.954546 3.00264 0.881136 3.00016C0.807725 2.99768 0.736197 3.0242 0.681376 3.07422Z" fill="#464646"/>
</svg>
